<?xml version="1.0" encoding="UTF-8"?>
<svg width="245px" height="75px" viewBox="0 0 245 75" version="1.1" xmlns="http://www.w3.org/2000/svg" xmlns:xlink="http://www.w3.org/1999/xlink">
    <!-- Generator: Sketch 48.2 (47327) - http://www.bohemiancoding.com/sketch -->
    <title>Group</title>
    <desc>Created with Sketch.</desc>
    <defs></defs>
    <g id="Page-1" stroke="none" stroke-width="1" fill="none" fill-rule="evenodd">
        <g id="Group" fill-rule="nonzero">
            <g id="gorilla-logo">
                <path d="M0,74.707 L244.25,74.707 L244.25,0 L0,0 L0,74.707 Z M3.906,70.625 L240.344,70.625 L240.344,4.081 L3.906,4.081 L3.906,70.625 Z" id="Fill-1" fill="#000000"></path>
                <g id="Group-14" transform="translate(25.000000, 26.000000)" fill="#FFFFFF">
                    <path d="M73.2642,4.124 C73.5582,4.074 73.8662,4.04 74.1852,4.024 C74.5832,4.005 75.0022,3.997 75.4372,3.997 C76.7782,3.997 77.7852,4.314 78.4942,4.932 C79.2082,5.546 79.5562,6.332 79.5612,7.344 C79.5562,8.501 79.1962,9.36 78.4642,10.005 C77.7432,10.641 76.6282,10.978 75.0952,10.978 C74.7522,10.978 74.4102,10.971 74.0602,10.951 C73.7842,10.936 73.5212,10.914 73.2642,10.886 L73.2642,4.124 Z M73.2642,14.365 C73.5312,14.383 73.7982,14.391 74.0712,14.391 C74.4252,14.402 74.7752,14.405 75.1222,14.405 L75.6972,14.405 C75.8292,14.41 75.9722,14.402 76.1162,14.391 L80.6972,21.958 L81.0182,22.433 L85.6212,22.433 L79.8332,13.353 C81.0642,12.779 82.0342,11.973 82.7252,10.951 C83.4622,9.854 83.8272,8.59 83.8272,7.172 C83.8272,6.205 83.6552,5.301 83.3102,4.472 C82.9552,3.625 82.4102,2.897 81.6742,2.278 C80.9372,1.666 80.0152,1.182 78.9112,0.832 C77.7972,0.478 76.4892,0.306 74.9802,0.306 C73.9032,0.306 72.9192,0.335 72.0152,0.405 C71.1282,0.47 70.2592,0.553 69.4122,0.65 L69.2002,0.676 L69.2002,22.433 L73.2642,22.433 L73.2642,14.365 Z" id="Fill-4"></path>
                    <polygon id="Fill-6" points="161.2568 22.4326 161.2568 18.6866 152.0208 18.6866 152.0208 0.3286 147.9518 0.3286 147.9518 22.4326 148.1938 22.4326"></polygon>
                    <path d="M182.8203,7.8076 L185.4453,13.9846 L180.2033,13.9846 L182.8203,7.8076 Z M178.8243,17.3026 L186.8273,17.3026 L189.0053,22.4296 L189.1673,22.4296 L193.3183,22.4296 L183.2923,0.3286 L182.6253,0.3286 L182.4703,0.3286 L172.4153,22.4296 L176.6483,22.4296 L178.8243,17.3026 Z" id="Fill-8"></path>
                    <path d="M4.3359,19.4023 C5.3699,20.3743 6.5819,21.1233 7.9679,21.6613 C9.3419,22.1953 10.7899,22.4653 12.2989,22.4653 L12.3319,22.4653 C13.9379,22.4653 15.3809,22.2643 16.6649,21.8523 C17.9369,21.4403 19.1449,20.8693 20.2889,20.1333 L20.4009,20.0613 L20.4009,10.5103 L20.1619,10.5103 L11.5749,10.5103 L11.5749,14.1453 L16.4819,14.1453 L16.4819,17.8943 C15.9229,18.1953 15.3539,18.4223 14.7689,18.5663 C14.1449,18.7213 13.3779,18.8033 12.4739,18.8033 C11.4699,18.8033 10.5329,18.6233 9.6539,18.2513 C8.7699,17.8783 8.0009,17.3693 7.3479,16.7203 C6.6939,16.0753 6.1819,15.2963 5.8069,14.3783 C5.4349,13.4613 5.2529,12.4683 5.2529,11.3843 C5.2529,10.3593 5.4179,9.4023 5.7369,8.5073 C6.0649,7.6203 6.5319,6.8423 7.1409,6.1783 C7.7459,5.5183 8.4969,5.0013 9.3969,4.6173 C10.2879,4.2363 11.3249,4.0463 12.5039,4.0463 C13.4529,4.0463 14.3989,4.1973 15.3409,4.4943 C16.2899,4.7973 17.1849,5.2183 18.0239,5.7613 L18.2389,5.8963 L20.1089,2.6063 L19.9189,2.4883 C18.8329,1.8093 17.6909,1.2683 16.4949,0.8683 C15.2859,0.4673 13.8999,0.2703 12.3319,0.2683 C10.8279,0.2683 9.3869,0.5343 8.0099,1.0583 C6.6369,1.5853 5.4199,2.3403 4.3779,3.3183 C3.3319,4.2973 2.4949,5.4653 1.8709,6.8263 C1.2409,8.1853 0.9319,9.7113 0.9319,11.3843 C0.9319,13.0363 1.2389,14.5533 1.8559,15.9143 C2.4699,17.2713 3.2969,18.4353 4.3359,19.4023" id="Fill-10"></path>
                    <path d="M38.9224,8.4209 C39.2494,7.5079 39.6964,6.7289 40.2664,6.0619 C40.8364,5.3969 41.5274,4.8859 42.3374,4.5159 C43.1484,4.1499 44.0274,3.9619 44.9944,3.9609 C45.9564,3.9619 46.8354,4.1499 47.6314,4.5159 C48.4394,4.8859 49.1154,5.3969 49.6934,6.0619 C50.2624,6.7289 50.7094,7.5079 51.0364,8.4209 C51.3614,9.3299 51.5264,10.3179 51.5264,11.3849 C51.5264,12.4519 51.3614,13.4369 51.0364,14.3429 C50.7094,15.2559 50.2624,16.0349 49.6934,16.6899 C49.1204,17.3469 48.4394,17.8619 47.6294,18.2379 C46.8354,18.6139 45.9564,18.8039 44.9944,18.8039 C44.0274,18.8039 43.1514,18.6139 42.3414,18.2349 C41.5274,17.8579 40.8364,17.3469 40.2664,16.6899 C39.6964,16.0349 39.2494,15.2559 38.9224,14.3429 C38.5954,13.4369 38.4324,12.4519 38.4324,11.3849 C38.4324,10.3179 38.5954,9.3299 38.9224,8.4209 M37.1614,19.3069 C38.1234,20.2979 39.2644,21.0719 40.5814,21.6259 C41.9044,22.1879 43.3434,22.4709 44.8774,22.4659 L44.9124,22.4659 C46.4584,22.4659 47.8944,22.1879 49.2134,21.6309 C50.5474,21.0719 51.7064,20.3039 52.6944,19.3129 C53.6814,18.3249 54.4584,17.1499 55.0104,15.7899 C55.5694,14.4309 55.8494,12.9639 55.8494,11.3849 C55.8494,9.7869 55.5824,8.3079 55.0434,6.9479 C54.5084,5.5939 53.7564,4.4149 52.7974,3.4279 C51.8364,2.4349 50.6994,1.6649 49.3904,1.1049 C48.0764,0.5479 46.6384,0.2689 45.0824,0.2709 C43.5404,0.2689 42.0974,0.5479 40.7534,1.1049 C39.4174,1.6599 38.2534,2.4349 37.2664,3.4229 C36.2774,4.4109 35.5004,5.5889 34.9484,6.9479 C34.3894,8.3079 34.1094,9.7869 34.1094,11.3849 C34.1094,12.9589 34.3764,14.4309 34.9164,15.7899 C35.4504,17.1449 36.2024,18.3229 37.1614,19.3069" id="Fill-12"></path>
                    <polygon id="Fill-2" points="134.1416 22.4326 134.1416 18.6836 124.9006 18.6836 124.9026 0.3056 120.8386 0.3056 120.8386 22.4326 121.0786 22.4326"></polygon>
                    <polygon id="Fill-3" points="104.3037 22.4326 104.3037 0.3056 100.2347 0.3056 100.2347 22.4326 100.4797 22.4326"></polygon>
                </g>
            </g>
        </g>
    </g>
</svg>